<?xml version="1.0" standalone="no"?><!DOCTYPE svg PUBLIC "-//W3C//DTD SVG 1.1//EN" "http://www.w3.org/Graphics/SVG/1.1/DTD/svg11.dtd"><svg t="1621759507929" class="icon" viewBox="0 0 1024 1024" version="1.1" xmlns="http://www.w3.org/2000/svg" p-id="7221" xmlns:xlink="http://www.w3.org/1999/xlink" width="48" height="48"><defs><style type="text/css"></style></defs><path d="M925 704.6c-3.8-11-11.2-23-22.8-36.6-20.4-24-61.6-58.6-109.6-94.4-5.2-4-12.8-1.6-15 4.6l-9.4 26.8c-1.4 4 0 8.6 3.4 11 31.8 23.2 71.8 55.8 83.6 71.8 4 5.6-1 13.2-7.8 11.6-20-4.6-58-14.6-88.4-25.6-17.2-6.2-35.4-13.4-54.4-21.2 32-41.6 49.4-92.6 49.4-145.2 0-65.6-26.4-127.2-74.2-172.8-45.8-43.8-107.6-68.2-171.4-67.4-51.4 0.6-100.2 16.8-141.4 47-36.6 26.8-64.4 62.6-81.2 104-16.6-12-32.2-23.8-46.4-35.2-27.4-21.8-56.8-44-77.4-69.4-4.4-5.6 1.8-13.4 8.8-11.8 22.6 5.2 70.8 21.8 112.8 37.8 3 1.2 6.4 0.6 9-1.6l22.2-20.2c4.8-4.2 3.4-12-2.6-14.4C242 274.8 178.4 256 146.4 256c-23 0-38.6 7-46.6 20.8-15.2 26.6 14.2 70.4 90.2 133.6 68.2 57 165.2 123.6 273 184 175 98.2 342.2 162 416 162 22.4 0 37.4-6.2 44.2-18.2 5.6-9.4 6.2-20.8 1.8-33.6zM624 708c-58.2-25.6-118.6-52-185.2-89.6-60.2-33.8-118.8-73-168.8-107.2-2-1.4-4.4-2.2-6.8-2.2-1.8 0-3.8 0.4-5.6 1.4-4 2-6.6 6-6.6 10.4 0 2.4-0.2 4.8-0.2 7 0 64.2 25.2 124.6 71 169.8 45.8 45.4 106.8 70.4 171.6 70.4 47.2 0 93-13.4 132.4-39 3.8-2.4 5.8-6.6 5.4-11-0.2-4.4-3-8.2-7.2-10z" p-id="7222" fill="#2c2c2c"></path></svg>