<?xml version="1.0" standalone="no"?><!DOCTYPE svg PUBLIC "-//W3C//DTD SVG 1.1//EN" "http://www.w3.org/Graphics/SVG/1.1/DTD/svg11.dtd"><svg t="1621759523338" class="icon" viewBox="0 0 1024 1024" version="1.1" xmlns="http://www.w3.org/2000/svg" p-id="7644" xmlns:xlink="http://www.w3.org/1999/xlink" width="48" height="48"><defs><style type="text/css"></style></defs><path d="M896 576c-30.536 0-56.058 21.39-62.446 50l-118.008 0-60.362-181.792c-2.21-6.658-8.492-11.086-15.518-10.956-7.016 0.144-13.118 4.844-15.048 11.59L516.134 823.48 399.784 125.37c-1.248-7.48-7.574-13.056-15.152-13.358-7.618-0.278-14.322 4.764-16.156 12.122L243.496 626 64 626l0 32 192 0c7.348 0 13.75-5.004 15.526-12.132l109.37-439.182 115.322 691.946c1.23 7.376 7.406 12.918 14.874 13.344 0.306 0.018 0.614 0.026 0.918 0.026 7.098 0 13.398-4.7 15.374-11.594l113.744-396.992 47.69 143.626c2.174 6.542 8.292 10.958 15.186 10.958l130.584 0c7.78 26.578 32.322 46 61.416 46 35.348 0 64-28.654 64-64S931.348 576 896 576z" p-id="7645"></path></svg>