<?xml version="1.0" standalone="no"?><!DOCTYPE svg PUBLIC "-//W3C//DTD SVG 1.1//EN" "http://www.w3.org/Graphics/SVG/1.1/DTD/svg11.dtd"><svg t="1621759466861" class="icon" viewBox="0 0 1024 1024" version="1.1" xmlns="http://www.w3.org/2000/svg" p-id="5607" xmlns:xlink="http://www.w3.org/1999/xlink" width="48" height="48"><defs><style type="text/css"></style></defs><path d="M686.2 630c-3.6 0.2-7 0.2-10.6 0.2-58.2 0-113-22.6-154.2-63.8-41.2-41.2-63.8-96-63.8-154.2 0-33.2 7.4-65.2 21.2-94.2 6.2-12.8 13.6-25 22.2-36.4-15.2 1.6-29.8 4.8-44 9.2-93.6 29.6-161.4 117-161.4 220.4 0 127.6 103.4 231 231 231 70.6 0 133.6-31.6 176-81.4 9.6-11.4 18.4-23.8 25.6-37C714.6 627.2 700.6 629.4 686.2 630z" p-id="5608" fill="#2c2c2c"></path></svg>