<?xml version="1.0" standalone="no"?><!DOCTYPE svg PUBLIC "-//W3C//DTD SVG 1.1//EN" "http://www.w3.org/Graphics/SVG/1.1/DTD/svg11.dtd"><svg t="1622372778160" class="icon" viewBox="0 0 1024 1024" version="1.1" xmlns="http://www.w3.org/2000/svg" p-id="14865" xmlns:xlink="http://www.w3.org/1999/xlink" width="48" height="48"><defs><style type="text/css"></style></defs><path d="M639.4 332.2c-6.3-6.3-16.4-6.3-22.7 0l-86 86c-6.3 6.3-6.3 16.4 0 22.7l11.4 11.4 23.1-23.1c6.2-6.2 16.3-6.2 22.5 0l7 7c6.2 6.2 6.2 16.3 0 22.5l-23.1 23.1 11.4 11.4c6.3 6.3 16.4 6.3 22.7 0l86-86c6.3-6.3 6.3-16.4 0-22.7l-52.3-52.3zM480.6 572.7l-26.5 26.5c-6.2 6.2-16.3 6.2-22.5 0l-7-7c-6.2-6.2-6.2-16.3 0-22.5l26.5-26.5-11.5-11.5c-6.3-6.3-16.4-6.3-22.6 0l-86 86c-6.3 6.3-6.3 16.4 0 22.6l52.4 52.4c6.3 6.3 16.4 6.3 22.6 0l86-86c6.3-6.3 6.3-16.4 0-22.6l-11.4-11.4z" fill="#231815" p-id="14866"></path><path d="M511.4 138.6c-206.5 0-373.9 167.4-373.9 373.9s167.4 373.9 373.9 373.9 374-167.4 374-373.9-167.5-373.9-374-373.9z m239.2 268.6L605.7 552.1c-6.3 6.3-16.4 6.3-22.7 0l-40.9-40.9-32.1 32.1 40.9 40.9c6.3 6.3 6.3 16.4 0 22.6L406.1 751.7c-6.3 6.3-16.4 6.3-22.6 0L272.3 640.5c-6.3-6.3-6.3-16.4 0-22.6L417.1 473c6.3-6.3 16.4-6.3 22.6 0l40.9 40.9 32.1-32.1-40.9-40.9c-6.3-6.3-6.3-16.4 0-22.7l144.8-144.8c6.3-6.3 16.4-6.3 22.7 0l111.2 111.2c6.3 6.2 6.3 16.4 0.1 22.6z" fill="#231815" p-id="14867"></path></svg>