<?xml version="1.0" standalone="no"?><!DOCTYPE svg PUBLIC "-//W3C//DTD SVG 1.1//EN" "http://www.w3.org/Graphics/SVG/1.1/DTD/svg11.dtd"><svg t="1621759489916" class="icon" viewBox="0 0 1024 1024" version="1.1" xmlns="http://www.w3.org/2000/svg" p-id="6826" xmlns:xlink="http://www.w3.org/1999/xlink" width="48" height="48"><defs><style type="text/css"></style></defs><path d="M516.8 628.8c62.4 0 113.6-51.2 113.6-113.6V302.4c0-62.4-51.2-113.6-113.6-113.6h-8c-62.4 0-113.6 51.2-113.6 113.6v212.8c0 62.4 51.2 113.6 113.6 113.6h8z m-81.6-113.6V302.4c0-40 33.6-73.6 73.6-73.6h8c40 0 73.6 33.6 73.6 73.6v212.8c0 40-33.6 73.6-73.6 73.6h-8c-40 0-73.6-33.6-73.6-73.6z" fill="#2c2c2c" p-id="6827"></path><path d="M528 691.2h-30.4c-92.8 0-169.6-75.2-169.6-169.6H288c0 113.6 91.2 206.4 204.8 209.6V832h40v-100.8c113.6-3.2 204.8-96 204.8-209.6h-40c-1.6 94.4-76.8 169.6-169.6 169.6z" fill="#2c2c2c" p-id="6828"></path></svg>